HIERARCHY
ROOT Hips
{
	OFFSET 0.000000 0.000000 0.000000
	CHANNELS 6 Xposition Yposition Zposition Xrotation Yrotation Zrotation
	JOINT LeftUpLeg_virtual
	{
		OFFSET 0.000000 0.000000 0.000000
		CHANNELS 3 Xrotation Yrotation Zrotation
		JOINT LeftUpLeg
		{
			OFFSET 13.026900 -6.336304 -1.092800
			CHANNELS 3 Xrotation Yrotation Zrotation
			JOINT LeftLeg
			{
				OFFSET 0.524474 -46.096886 9.782700
				CHANNELS 3 Xrotation Yrotation Zrotation
				JOINT LeftFoot
				{
					OFFSET -0.524474 -53.427422 -12.948200
					CHANNELS 3 Xrotation Yrotation Zrotation
					JOINT LeftToeBase
					{
						OFFSET 0.192200 -14.009700 16.364100
						CHANNELS 3 Xrotation Yrotation Zrotation
						JOINT LeftToe_End
						{
							OFFSET -1.784700 -0.561700 9.474800
							CHANNELS 3 Xrotation Yrotation Zrotation
							End Site
							{
								OFFSET 0 0 0
							}
						}
					}
				}
			}
		}
	}
	JOINT RightUpLeg_virtual
	{
		OFFSET 0.000000 0.000000 0.000000
		CHANNELS 3 Xrotation Yrotation Zrotation
		JOINT RightUpLeg
		{
			OFFSET -12.883000 -6.336304 -1.092800
			CHANNELS 3 Xrotation Yrotation Zrotation
			JOINT RightLeg
			{
				OFFSET -0.524587 -46.096825 9.782800
				CHANNELS 3 Xrotation Yrotation Zrotation
				JOINT RightFoot
				{
					OFFSET 0.524587 -53.427383 -12.948300
					CHANNELS 3 Xrotation Yrotation Zrotation
					JOINT RightToeBase
					{
						OFFSET -0.192200 -14.009700 16.364100
						CHANNELS 3 Xrotation Yrotation Zrotation
						JOINT RightToe_End
						{
							OFFSET 1.784700 -0.561700 9.474800
							CHANNELS 3 Xrotation Yrotation Zrotation
							End Site
							{
								OFFSET 0 0 0
							}
						}
					}
				}
			}
		}
	}
	JOINT Spine_virtual
	{
		OFFSET 0.000000 0.000000 0.000000
		CHANNELS 3 Xrotation Yrotation Zrotation
		JOINT Spine
		{
			OFFSET 0.072000 7.257294 -0.789700
			CHANNELS 3 Xrotation Yrotation Zrotation
			JOINT Spine1
			{
				OFFSET 0.000000 12.508769 -0.658067
				CHANNELS 3 Xrotation Yrotation Zrotation
				JOINT Spine1_split
				{
					OFFSET 0.000000 12.508769 -0.658067
					CHANNELS 3 Xrotation Yrotation Zrotation
					JOINT Spine2
					{
						OFFSET 0.000000 12.508769 -0.658067
						CHANNELS 3 Xrotation Yrotation Zrotation
						JOINT Neck_virtual
						{
							OFFSET 0.000000 0.000000 0.000000
							CHANNELS 3 Xrotation Yrotation Zrotation
							JOINT Neck
							{
								OFFSET 0.000000 14.033295 7.520400
								CHANNELS 3 Xrotation Yrotation Zrotation
								JOINT Head
								{
									OFFSET 0.000000 8.198502 5.703100
									CHANNELS 3 Xrotation Yrotation Zrotation
									JOINT HeadTop_End
									{
										OFFSET 0.000000 17.760803 13.332701
										CHANNELS 3 Xrotation Yrotation Zrotation
										End Site
										{
											OFFSET 0 0 0
										}
									}
								}
							}
						}
						JOINT LeftShoulder_virtual
						{
							OFFSET 0.000000 0.000000 0.000000
							CHANNELS 3 Xrotation Yrotation Zrotation
							JOINT LeftShoulder
							{
								OFFSET 6.292450 5.785301 -0.669000
								CHANNELS 3 Xrotation Yrotation Zrotation
								JOINT LeftShoulder_split
								{
									OFFSET 6.292450 5.785301 -0.669000
									CHANNELS 3 Xrotation Yrotation Zrotation
									JOINT LeftArm
									{
										OFFSET 13.907140 -6.093903 1.965100
										CHANNELS 3 Xrotation Yrotation Zrotation
										JOINT LeftForeArm
										{
											OFFSET 34.140198 0.000000 0.000000
											CHANNELS 3 Xrotation Yrotation Zrotation
											JOINT LeftHand
											{
												OFFSET 40.960209 0.000000 0.000000
												CHANNELS 3 Xrotation Yrotation Zrotation
												End Site
												{
													OFFSET 0 0 0
												}
											}
										}
									}
								}
							}
						}
						JOINT RightShoulder_virtual
						{
							OFFSET 0.000000 0.000000 0.000000
							CHANNELS 3 Xrotation Yrotation Zrotation
							JOINT RightShoulder
							{
								OFFSET -6.292450 5.785301 -0.669000
								CHANNELS 3 Xrotation Yrotation Zrotation
								JOINT RightShoulder_split
								{
									OFFSET -6.292450 5.785301 -0.669000
									CHANNELS 3 Xrotation Yrotation Zrotation
									JOINT RightArm
									{
										OFFSET -13.907140 -6.093903 1.965100
										CHANNELS 3 Xrotation Yrotation Zrotation
										JOINT RightForeArm
										{
											OFFSET -34.140198 0.000000 0.000000
											CHANNELS 3 Xrotation Yrotation Zrotation
											JOINT RightHand
											{
												OFFSET -40.960209 0.000000 0.000000
												CHANNELS 3 Xrotation Yrotation Zrotation
												End Site
												{
													OFFSET 0 0 0
												}
											}
										}
									}
								}
							}
						}
					}
				}
			}
		}
	}
}
MOTION
Frames: 11
Frame Time: 0.03333333
4.986612 103.734398 86.106750 0.000000 0.000000 0.000000 22.447611 7.360867 1.300305 13.741295 23.739222 -4.030330 1.071869 -2.991638 4.714953 -19.146548 5.963354 -15.287150 -5.683508 -3.107579 -8.725023 0.000000 0.000000 0.000000 23.408397 12.575831 0.254930 -45.660269 5.572650 3.565082 46.092804 -28.730552 0.404062 -9.089337 -3.775340 11.990908 -1.624669 4.268287 -1.527886 0.000000 0.000000 0.000000 19.056494 12.409304 1.421345 1.085368 -6.168852 0.298391 2.732800 -1.651685 1.804614 0.074207 0.265221 -0.081442 0.000000 0.000000 0.000000 3.547243 0.789989 3.760248 1.318216 -5.367413 -11.510458 -1.961294 -57.322718 -8.020751 0.000000 0.000000 0.000000 6.296782 0.431980 1.341618 5.416801 -13.361716 -3.666998 10.671752 -9.113743 -1.465932 -57.069130 -10.056344 -22.722120 25.556452 -56.049130 29.402247 0.000000 0.000000 0.000000 7.278781 0.268810 1.849197 5.676609 6.108270 2.706041 17.033805 9.480929 0.785871 -57.197766 -3.527570 21.287587 48.147311 74.684703 -53.305894 0.000000 0.000000 0.000000 
4.911778 103.151352 86.700439 0.000000 0.000000 0.000000 22.773022 7.462463 1.285391 13.368074 23.534359 -3.816713 1.835939 -2.980563 4.683947 -19.407552 6.199302 -15.677659 -5.973931 -3.054330 -8.754092 0.000000 0.000000 0.000000 23.747058 12.443037 0.264057 -46.474407 5.242599 3.365537 47.376251 -28.532871 0.609894 -9.365642 -3.821844 12.030028 -1.745354 4.274792 -1.538216 0.000000 0.000000 0.000000 19.610183 12.300464 1.396369 1.340232 -6.123890 0.384361 2.602162 -1.729053 1.838495 0.069957 0.272672 -0.077940 0.000000 0.000000 0.000000 3.376428 0.715164 3.792540 0.707118 -4.262846 -11.450334 -4.961330 -56.234641 -10.844221 0.000000 0.000000 0.000000 5.987208 0.349315 1.371556 5.355477 -13.427008 -2.745228 10.425330 -8.925064 -1.495608 -57.189420 -10.451923 -22.802137 25.873704 -55.953401 29.781763 0.000000 0.000000 0.000000 7.054773 0.219079 1.908823 5.461233 6.357161 2.550540 16.193783 8.931896 0.785643 -57.246930 -3.136354 21.924263 47.614283 74.941314 -53.194592 0.000000 0.000000 0.000000 
4.847184 102.584152 87.281219 0.000000 0.000000 0.000000 23.136917 7.592591 1.250100 12.980294 23.327823 -3.582681 2.570319 -2.964285 4.639637 -19.628263 6.401190 -16.041947 -6.317242 -3.001143 -8.783530 0.000000 0.000000 0.000000 24.123967 12.314665 0.263119 -47.255275 4.920231 3.159954 48.542441 -28.337466 0.780948 -9.644544 -3.869575 12.078838 -1.859248 4.282535 -1.533386 0.000000 0.000000 0.000000 20.200887 12.178098 1.365928 1.581182 -6.064152 0.472054 2.481147 -1.799078 1.894551 0.064848 0.277628 -0.074722 0.000000 0.000000 0.000000 3.226939 0.649364 3.836372 0.121290 -3.125361 -11.327860 -7.781077 -55.022173 -13.555935 0.000000 0.000000 0.000000 5.685492 0.271908 1.420790 5.285690 -13.568913 -1.809075 10.191408 -8.669054 -1.532201 -57.390876 -10.946701 -22.958120 26.001053 -55.753758 29.968244 0.000000 0.000000 0.000000 6.838569 0.177193 1.989141 5.219971 6.578967 2.386064 15.362175 8.339748 0.772596 -57.346876 -2.702022 22.632131 46.519124 75.166976 -52.565457 0.000000 0.000000 0.000000 
4.785884 102.021431 87.858200 0.000000 0.000000 0.000000 23.541746 7.708157 1.194816 12.586573 23.102194 -3.325269 3.289538 -2.953878 4.594031 -19.830992 6.575881 -16.394952 -6.678765 -2.950870 -8.815611 0.000000 0.000000 0.000000 24.543214 12.180520 0.243740 -48.004004 4.594957 2.955307 49.601575 -28.154135 0.929526 -9.951195 -3.914621 12.104094 -1.899510 4.295367 -1.520027 0.000000 0.000000 0.000000 20.823078 12.022880 1.321412 1.807445 -5.991274 0.564129 2.371396 -1.863076 1.972809 0.061108 0.276626 -0.070250 0.000000 0.000000 0.000000 3.102775 0.591740 3.894942 -0.450234 -1.959436 -11.159644 -10.421500 -53.696454 -16.158691 0.000000 0.000000 0.000000 5.394216 0.197067 1.489492 5.204346 -13.799181 -0.882383 9.965941 -8.366940 -1.600128 -57.647384 -11.553960 -23.152586 25.926995 -55.454053 29.945154 0.000000 0.000000 0.000000 6.627610 0.140569 2.092474 4.953964 6.773444 2.212029 14.564658 7.724993 0.736630 -57.459205 -2.220164 23.414712 44.861871 75.354035 -51.421277 0.000000 0.000000 0.000000 
4.727471 101.451859 88.434715 0.000000 0.000000 0.000000 23.984460 7.791479 1.123608 12.201207 22.831500 -3.049341 4.008412 -2.968457 4.561255 -20.044790 6.732408 -16.768273 -7.032770 -2.905775 -8.845506 0.000000 0.000000 0.000000 24.995542 12.018823 0.208236 -48.732167 4.260466 2.755530 50.605302 -27.979860 1.074150 -10.287477 -3.946371 12.101698 -1.852814 4.318332 -1.508713 0.000000 0.000000 0.000000 21.479447 11.827022 1.258158 2.023362 -5.908496 0.661541 2.274347 -1.921225 2.071058 0.057118 0.268175 -0.062749 0.000000 0.000000 0.000000 3.003858 0.540304 3.970962 -1.017743 -0.768510 -10.964206 -12.896476 -52.286560 -18.654133 0.000000 0.000000 0.000000 5.109902 0.125779 1.577936 5.110800 -14.121720 0.029625 9.765407 -8.043284 -1.693718 -57.922702 -12.265121 -23.330145 25.667320 -55.082365 29.730499 0.000000 0.000000 0.000000 6.420026 0.105305 2.217019 4.672662 6.932070 2.013468 13.799171 7.115548 0.691066 -57.547117 -1.692050 24.257627 42.790493 75.522822 -49.910631 0.000000 0.000000 0.000000 
4.681472 100.868935 89.011917 0.000000 0.000000 0.000000 24.460139 7.859310 1.034687 11.821142 22.488493 -2.760915 4.741286 -3.021608 4.553437 -20.280080 6.881472 -17.199772 -7.364937 -2.865885 -8.872484 0.000000 0.000000 0.000000 25.479370 11.833289 0.158266 -49.467245 3.915223 2.554576 51.598206 -27.801838 1.223012 -10.624293 -3.960224 12.104931 -1.786594 4.352129 -1.512287 0.000000 0.000000 0.000000 22.159717 11.609791 1.179433 2.235846 -5.821917 0.761461 2.185065 -1.977412 2.186646 0.055237 0.247605 -0.053479 0.000000 0.000000 0.000000 2.925373 0.493201 4.064672 -1.582730 0.445487 -10.755253 -15.227099 -50.827068 -21.043656 0.000000 0.000000 0.000000 4.828328 0.055647 1.683333 5.008088 -14.526542 0.927832 9.578418 -7.665521 -1.820783 -58.185118 -13.062334 -23.462106 25.272349 -54.670084 29.380137 0.000000 0.000000 0.000000 6.213417 0.067695 2.359569 4.383539 7.048373 1.793120 13.038812 6.515027 0.632557 -57.598453 -1.147071 25.138825 40.502759 75.707231 -48.226142 0.000000 0.000000 0.000000 
4.662037 100.267235 89.601715 0.000000 0.000000 0.000000 24.965718 7.929518 0.932976 11.431635 22.090859 -2.468026 5.493432 -3.114925 4.572032 -20.529365 7.028948 -17.712337 -7.703711 -2.828298 -8.890885 0.000000 0.000000 0.000000 25.992797 11.637236 0.096404 -50.249114 3.565803 2.339536 52.621099 -27.598071 1.379972 -10.935841 -3.957155 12.162526 -1.775206 4.392807 -1.539097 0.000000 0.000000 0.000000 22.869966 11.391565 1.088293 2.448412 -5.738696 0.857486 2.094999 -2.034669 2.315372 0.052987 0.220305 -0.044176 0.000000 0.000000 0.000000 2.854393 0.445137 4.173132 -2.147330 1.679866 -10.545681 -17.425529 -49.361326 -23.314367 0.000000 0.000000 0.000000 4.545200 -0.016179 1.803678 4.898176 -14.986603 1.807404 9.394307 -7.247167 -1.951011 -58.410070 -13.908054 -23.547871 24.842062 -54.282816 28.999904 0.000000 0.000000 0.000000 6.004048 0.024879 2.515798 4.092660 7.123101 1.564107 12.276081 5.922190 0.568833 -57.588412 -0.606368 26.030502 38.142522 75.925209 -46.505962 0.000000 0.000000 0.000000 
4.672633 99.643265 90.205048 0.000000 0.000000 0.000000 25.504048 8.023772 0.821098 11.030207 21.663431 -2.180750 6.256961 -3.227419 4.612047 -20.785166 7.182506 -18.279796 -8.073599 -2.791061 -8.901474 0.000000 0.000000 0.000000 26.542581 11.454724 0.029628 -51.089518 3.229644 2.104498 53.703500 -27.368228 1.550532 -11.205637 -3.954168 12.288202 -1.845270 4.432116 -1.588856 0.000000 0.000000 0.000000 23.616178 11.201645 0.993289 2.659306 -5.663310 0.942828 1.996511 -2.094872 2.452967 0.049940 0.190613 -0.035645 0.000000 0.000000 0.000000 2.779911 0.392329 4.293164 -2.703437 2.933128 -10.340172 -19.501145 -47.930033 -25.453006 0.000000 0.000000 0.000000 4.251772 -0.091926 1.935035 4.782351 -15.473029 2.660049 9.232515 -6.805527 -2.052198 -58.602893 -14.768158 -23.619991 24.451171 -53.973999 28.669828 0.000000 0.000000 0.000000 5.786097 -0.025160 2.681945 3.806072 7.164301 1.347528 11.497131 5.349119 0.511198 -57.510220 -0.078267 26.907923 35.849494 76.199161 -44.874411 0.000000 0.000000 0.000000 
4.713541 98.996941 90.823662 0.000000 0.000000 0.000000 26.081538 8.134627 0.710689 10.610273 21.233569 -1.903888 7.022501 -3.335329 4.666525 -21.021833 7.349272 -18.869461 -8.459313 -2.752639 -8.913760 0.000000 0.000000 0.000000 27.138254 11.305262 -0.039446 -51.989190 2.913905 1.846140 54.855186 -27.134847 1.747716 -11.428033 -3.983686 12.453222 -1.970074 4.458994 -1.650760 0.000000 0.000000 0.000000 24.401122 11.053787 0.900736 2.862160 -5.596273 1.012257 1.886004 -2.160025 2.593703 0.047003 0.161767 -0.028999 0.000000 0.000000 0.000000 2.689193 0.333335 4.418917 -3.236603 4.201260 -10.131693 -21.464438 -46.556417 -27.451338 0.000000 0.000000 0.000000 3.944242 -0.172124 2.071766 4.659427 -15.956169 3.459819 9.096836 -6.357755 -2.130383 -58.766210 -15.611026 -23.716556 24.159469 -53.769223 28.447133 0.000000 0.000000 0.000000 5.549438 -0.081172 2.851990 3.524797 7.193615 1.167453 10.729499 4.798512 0.417367 -57.371916 0.449066 27.729689 33.719756 76.543348 -43.411395 0.000000 0.000000 0.000000 
4.781165 98.336060 91.452141 0.000000 0.000000 0.000000 26.707110 8.240269 0.611449 10.171306 20.832850 -1.639044 7.771182 -3.422290 4.722048 -21.222113 7.531521 -19.446522 -8.842049 -2.713833 -8.930954 0.000000 0.000000 0.000000 27.773530 11.183583 -0.102067 -52.940547 2.624582 1.566733 56.058081 -26.922275 1.974890 -11.615548 -4.068952 12.604703 -2.095607 4.467698 -1.712738 0.000000 0.000000 0.000000 25.240838 10.945948 0.813677 3.046033 -5.532503 1.065325 1.754339 -2.228463 2.729392 0.043433 0.136264 -0.025798 0.000000 0.000000 0.000000 2.572575 0.269282 4.541488 -3.738033 5.479372 -9.914340 -23.327512 -45.255204 -29.301761 0.000000 0.000000 0.000000 3.616391 -0.255820 2.205444 4.531167 -16.419602 4.202140 8.975382 -5.924985 -2.180063 -58.902923 -16.421947 -23.858810 23.963722 -53.671449 28.336954 0.000000 0.000000 0.000000 5.285187 -0.140412 3.017687 3.250479 7.219750 1.024360 9.986350 4.290408 0.320226 -57.189621 1.030205 28.441329 31.842250 76.979975 -42.189105 0.000000 0.000000 0.000000 
4.867141 97.675903 92.078148 0.000000 0.000000 0.000000 27.379110 8.320423 0.525990 9.717483 20.460460 -1.386578 8.484245 -3.491074 4.766815 -21.363099 7.726613 -19.991591 -9.214938 -2.675353 -8.950469 0.000000 0.000000 0.000000 28.442965 11.069706 -0.155925 -53.923886 2.366783 1.278728 57.261885 -26.757027 2.222819 -11.771934 -4.213551 12.701066 -2.225634 4.457354 -1.763887 0.000000 0.000000 0.000000 26.138890 10.851357 0.737107 3.201074 -5.461561 1.107543 1.595037 -2.297684 2.850608 0.041285 0.114659 -0.020427 0.000000 0.000000 0.000000 2.424487 0.203686 4.651953 -4.199758 6.764911 -9.680867 -25.100196 -44.021099 -31.004937 0.000000 0.000000 0.000000 3.262860 -0.340366 2.326304 4.401201 -16.860202 4.887979 8.834028 -5.504675 -2.229371 -59.045052 -17.193022 -24.050351 23.817288 -53.646020 28.301111 0.000000 0.000000 0.000000 4.987208 -0.200568 3.169679 2.982511 7.245441 0.925140 9.291636 3.818769 0.202340 -56.993530 1.716922 28.995721 30.260344 77.535174 -41.236147 0.000000 0.000000 0.000000 
